# xmcd
#
# Track frame offsets:
#	150
#	34631
#	57779
#	114890
#	168968
#	187661
#	229748
#	258755
#	298211
#
# Disc length: 4424 seconds
#
# Revision: 1
# Processed by: cddbd v1.5PL3 Copyright (c) Steve Scherf et al.
# Submitted via: CDmax 2.0
#
DISCID=6a114609
DTITLE=Stevie Ray Vaughan - Liberated Stilleto Rain - 06/19/1985
DYEAR=1985
DGENRE=Blues
TTITLE0=Ain't Gone 'n' Give Up On Love
TTITLE1=Pride And Joy
TTITLE2=Voodoo Chile(Slight Return)
TTITLE3=Tin Pan Alley
TTITLE4=Look at Little Sister
TTITLE5=Texas Flood
TTITLE6=Come On (Part III)
TTITLE7=Little Wing
TTITLE8=Third Stone From the Sun
EXTD=Stevie Ray Vaughan\n06/19/1985\nRed Rocks Amphitheater, Denver, CO\n\nLi
EXTD=berated Stilleto Rain Boot \n\nSource:\nThis recording sounds like an of
EXTD=fhand board mix, good quality\n\nSetlist:\n01 Ain't Gone 'n' Give Up O
EXTD=n Love      7:40\n02 Pride And Joy\t               5:09\n03 Voodoo Chile
EXTD=(Slight Return)        12:40   \n04 Tin Pan Alley                      1
EXTD=2:01\n05 Look at Little Sister               4:09\n06 Texas Flood\t\t\
EXTD=t       9:21\n07 Come On (Part III)                  6:30\n08 Little Win
EXTD=g                         7:44\n09 Third Stone From the Sun            8
EXTD=:29\n\nNotes:\nThe CD is sometimes incorrectly listed as 06/17/1985 an
EXTD=d 06/17/1983.
EXTT0=
EXTT1=
EXTT2=
EXTT3=
EXTT4=
EXTT5=
EXTT6=
EXTT7=
EXTT8=
PLAYORDER=
